<svg width="30" height="26" viewBox="0 0 30 26" fill="none" xmlns="http://www.w3.org/2000/svg">
<path d="M20.4 0.399902C19.9147 0.399902 19.3898 0.474902 19.3898 0.474902L10.7613 1.5999L2.22771 1.60342C1.06759 1.53687 0.0767078 2.42924 0.00466656 3.56865C-0.0629192 4.6567 0.721769 5.61578 1.78474 5.77647C1.82356 5.78239 8.38216 6.23442 9.84724 6.33545C9.64227 6.7265 9.55055 7.18028 9.6281 7.64561L9.62107 7.59404L10.1508 14.3042L8.22888 20.0323C8.2281 20.0335 8.22732 20.0347 8.22654 20.0358C8.20821 20.0917 8.09278 20.3854 7.99334 20.7354C7.89389 21.0854 7.79998 21.5222 7.79998 21.9999C7.79998 23.9809 9.419 25.5999 11.4 25.5999H19.8C21.4497 25.5999 22.8 24.2496 22.8 22.5999V13.5999C22.8 13.1405 22.619 12.723 22.3312 12.4034C22.8107 11.8685 22.9496 11.072 22.6113 10.3948H22.6101L21.1629 7.49912L22.6535 3.61436C22.6547 3.61163 22.6559 3.6089 22.657 3.60615C22.7485 3.35657 22.8 3.08422 22.8 2.7999C22.8 1.4815 21.7184 0.399902 20.4 0.399902ZM27 0.999902C25.3502 0.999902 24 2.35015 24 3.9999C24 5.64965 25.3502 6.9999 27 6.9999C28.6497 6.9999 30 5.64965 30 3.9999C30 2.35015 28.6497 0.999902 27 0.999902ZM20.4 1.5999C21.07 1.5999 21.6 2.1299 21.6 2.7999C21.6 2.93918 21.575 3.07004 21.5297 3.19365L19.9476 7.31631C19.9178 7.39401 19.9046 7.47706 19.9086 7.56018C19.9126 7.6433 19.9339 7.72467 19.9711 7.79912L21.5379 10.9315H21.5367C21.6883 11.2351 21.5713 11.5851 21.2683 11.7366C21.1805 11.7805 21.0918 11.7999 21.0011 11.7999H21C20.7808 11.8002 20.5711 11.6836 20.4633 11.4683L18.6633 7.86943V7.86826C18.6041 7.74904 18.5863 7.61399 18.6105 7.4874V7.48623C18.5991 7.54649 18.6494 7.29816 18.7043 7.03506C18.7591 6.77195 18.8307 6.42734 18.9023 6.08467C18.9092 6.05161 18.9095 6.05199 18.9164 6.01904C18.94 5.95797 18.9535 5.89345 18.9562 5.82803C19.0679 5.2937 19.1871 4.72295 19.1871 4.72295C19.2055 4.64501 19.2081 4.56417 19.1948 4.48519C19.1815 4.40622 19.1525 4.33071 19.1096 4.26312C19.0666 4.19552 19.0106 4.13721 18.9447 4.09161C18.8789 4.04602 18.8046 4.01406 18.7262 3.99764C18.6478 3.98121 18.5669 3.98064 18.4883 3.99596C18.4097 4.01128 18.335 4.04218 18.2685 4.08684C18.202 4.1315 18.1451 4.18902 18.1012 4.256C18.0573 4.32298 18.0273 4.39808 18.0129 4.47686C18.0129 4.47686 17.9205 4.91858 17.8617 5.1999H10.8234C10.7886 5.1975 2.00833 4.59711 1.96521 4.59053L1.96404 4.58936C1.50595 4.52044 1.17273 4.12004 1.20232 3.64365C1.23468 3.13186 1.62547 2.7716 2.15974 2.80225C2.17106 2.80296 2.18239 2.80335 2.19373 2.80342L10.8 2.7999C10.8258 2.80001 10.8517 2.79844 10.8773 2.79521L19.5492 1.66436H19.5527C19.5527 1.66436 20.0477 1.5999 20.4 1.5999ZM27 2.1999C28.0012 2.1999 28.8 2.99868 28.8 3.9999C28.8 5.00112 28.0012 5.7999 27 5.7999C25.9988 5.7999 25.2 5.00112 25.2 3.9999C25.2 2.99868 25.9988 2.1999 27 2.1999ZM11.7199 6.3999H11.7457C12.1602 6.41673 12.5105 6.71809 12.5847 7.14873C12.5885 7.1935 12.7361 8.94211 12.8871 10.7394C12.9636 11.6494 13.0392 12.5604 13.0969 13.246C13.1257 13.5888 13.1502 13.8751 13.1672 14.0769C13.1757 14.1777 13.1824 14.2585 13.1871 14.3136C13.1917 14.3686 13.1907 14.3554 13.1953 14.405C13.1953 14.4081 13.1953 14.4112 13.1953 14.4144C13.1981 14.44 13.2 14.4694 13.2 14.4999C13.2 14.4167 13.1994 14.4914 13.1953 14.5374C13.1912 14.5835 13.1846 14.6495 13.1765 14.7319C13.1603 14.8967 13.1378 15.126 13.1097 15.3964C13.0536 15.9372 12.9785 16.6442 12.9035 17.3464C12.7536 18.7507 12.6035 20.1354 12.6035 20.1354C12.5945 20.2192 12.6031 20.3039 12.629 20.384C12.6549 20.4642 12.6973 20.538 12.7536 20.6007C12.8098 20.6634 12.8786 20.7135 12.9556 20.7478C13.0325 20.7821 13.1158 20.7999 13.2 20.7999H19.8C19.9591 20.7999 20.1117 20.7367 20.2242 20.6241C20.3367 20.5116 20.4 20.359 20.4 20.1999V13.5999C20.4 13.2621 20.6622 12.9999 21 12.9999H21.0023C21.3389 13.0011 21.6 13.2629 21.6 13.5999V22.5999C21.6 23.601 20.8011 24.3999 19.8 24.3999H11.4C10.0678 24.3999 8.99998 23.3321 8.99998 21.9999C8.99998 21.6856 9.06693 21.3465 9.14763 21.0624C9.22791 20.7799 9.31014 20.5829 9.3656 20.4144L9.36678 20.4108L11.3273 14.5702C11.353 14.4937 11.363 14.4128 11.3566 14.3323L10.8176 7.49912C10.8163 7.48186 10.8144 7.46465 10.8117 7.44756C10.7288 6.95046 11.0545 6.49446 11.5511 6.41162H11.5535C11.6097 6.40201 11.6652 6.39925 11.7199 6.3999ZM13.5855 6.3999H17.6109C17.5838 6.53001 17.5515 6.68294 17.5289 6.79131C17.4741 7.05413 17.4493 7.16895 17.4316 7.2624C17.3575 7.64904 17.413 8.05046 17.5898 8.40498L19.3898 12.005C19.4647 12.1545 19.5586 12.2882 19.6664 12.4069C19.3802 12.7261 19.2 13.142 19.2 13.5999V19.5999H13.8679C13.9159 19.1563 13.9821 18.5449 14.0965 17.4741C14.1715 16.7714 14.2463 16.0637 14.3027 15.5206C14.3309 15.2491 14.3552 15.018 14.3719 14.8491C14.3802 14.7647 14.3859 14.6968 14.3906 14.644C14.3953 14.5913 14.4 14.6032 14.4 14.4999C14.4 14.4308 14.3963 14.3594 14.3883 14.2854C14.3899 14.3033 14.3865 14.2614 14.3824 14.2128C14.3778 14.1579 14.371 14.0781 14.3625 13.9772C14.3455 13.7755 14.3222 13.4892 14.2933 13.1464C14.2357 12.4608 14.1589 11.5498 14.0824 10.6397C13.9295 8.81965 13.7765 7.00342 13.7765 7.00342C13.7753 6.98694 13.7733 6.97052 13.7707 6.9542C13.7375 6.75575 13.6691 6.57353 13.5855 6.3999ZM27 19.5999C25.3502 19.5999 24 20.9502 24 22.5999C24 24.2496 25.3502 25.5999 27 25.5999C28.6497 25.5999 30 24.2496 30 22.5999C30 20.9502 28.6497 19.5999 27 19.5999ZM27 20.7999C28.0012 20.7999 28.8 21.5987 28.8 22.5999C28.8 23.6011 28.0012 24.3999 27 24.3999C25.9988 24.3999 25.2 23.6011 25.2 22.5999C25.2 21.5987 25.9988 20.7999 27 20.7999Z" fill="#1A1A1A"/>
</svg>
