<svg width="28" height="28" viewBox="0 0 28 28" fill="none" xmlns="http://www.w3.org/2000/svg">
<path d="M1.10004 0.199883C0.860982 0.199883 0.619576 0.319414 0.439107 0.499882C0.260982 0.680351 0.200045 0.919414 0.200045 1.16082C0.200045 1.39988 0.319576 1.69988 0.500045 1.88035C0.804732 2.18504 1.1352 2.42176 1.47973 2.61395L3.76489 19.1866L0.375826 22.5757C0.216451 22.735 0.160201 22.9694 0.22817 23.1827C0.298482 23.396 0.478951 23.5554 0.701607 23.5905L3.87973 24.1225L4.40942 27.2983C4.44458 27.521 4.60395 27.7014 4.81723 27.7718C5.03051 27.8397 5.26489 27.7835 5.42426 27.6241L8.81333 24.235L25.3789 26.5179C25.5688 26.86 25.8079 27.1882 26.1196 27.4999C26.3 27.6804 26.6 27.7999 26.8414 27.7999C27.0805 27.7999 27.3196 27.7389 27.5 27.5585C27.9196 27.1999 27.9196 26.5999 27.5586 26.2413C26.4196 25.0999 26.7196 23.4194 26.9 21.5585C27.3805 16.3389 27.1391 13.5194 25.5196 10.0413C24.7414 8.60223 23.4852 6.74832 22.1071 6.74129L24.0243 4.8241C24.0641 4.78426 24.0993 4.73973 24.125 4.69051C24.3079 4.7866 24.5 4.84988 24.7063 4.86863C25.1024 4.90848 25.5266 4.76316 25.8243 4.46551C26.0563 4.23348 26.1594 4.01551 26.3539 3.6827C26.5461 3.34988 26.7618 2.95145 26.9657 2.56707C27.3758 1.79363 27.7368 1.06707 27.7368 1.06707C27.8282 0.884257 27.8211 0.668633 27.7157 0.492851C27.6102 0.31707 27.425 0.206914 27.2188 0.199883C27.118 0.197539 27.0172 0.218633 26.9282 0.265508C26.9282 0.265508 26.1875 0.642851 25.4094 1.0577C25.0204 1.26629 24.6219 1.48426 24.2938 1.67176C24.1297 1.76551 23.9844 1.85223 23.8625 1.92957C23.7407 2.00926 23.6586 2.05379 23.5344 2.17566C23.0868 2.62332 23.0352 3.29832 23.3188 3.86785C23.2649 3.89598 23.218 3.93348 23.1758 3.97566L21.3289 5.82254C21.2211 4.4702 19.4469 3.25379 18.0196 2.53895C15.5 1.39988 13.3391 0.919414 10.4586 0.919414C9.25864 0.919414 7.94145 0.980351 6.38051 1.16082C5.60004 1.21941 4.88051 1.33895 4.21958 1.33895C3.25864 1.33895 2.41958 1.16082 1.76098 0.499882C1.58051 0.26082 1.33911 0.199883 1.10004 0.199883ZM10.1 2.11941H10.4586C13.2196 2.11941 15.1391 2.53895 17.4196 3.61941C19.1586 4.45848 20.1196 5.48035 20.0586 5.95848C20 6.25848 19.8805 6.61941 19.4 6.61941C19.161 6.61941 18.9196 6.56082 18.7414 6.38035C17.3 5.24129 14 2.89988 10.1 2.11941ZM25.7868 2.2202C25.625 2.52488 25.4586 2.83426 25.3157 3.0827C25.1352 3.38973 24.9243 3.66629 24.9758 3.61707C24.9125 3.67801 24.8891 3.6827 24.8188 3.67566C24.7508 3.66863 24.6336 3.6241 24.5047 3.4952C24.2868 3.27723 24.3664 3.04051 24.3852 3.0241C24.336 3.07098 24.411 3.00301 24.5094 2.94207C24.6055 2.88113 24.7368 2.80145 24.8914 2.71238C25.1469 2.56707 25.4704 2.39129 25.7868 2.2202ZM7.51958 3.01941C11.3586 3.01941 15.3196 5.18035 18.0805 7.34129C18.4672 7.61551 18.9032 7.78191 19.3438 7.81004L7.79379 19.3577L4.93442 18.8819L2.75708 3.10145C3.26098 3.21629 3.77426 3.26082 4.28051 3.26082C5.11958 3.26082 5.90004 3.14129 6.68051 3.08035C6.98051 3.08035 7.21958 3.01941 7.51958 3.01941ZM22.0414 7.94129H22.1C22.5805 7.94129 23.6 8.89988 24.3805 10.5804C25.461 12.8608 25.8805 14.8413 25.8805 17.8413C25.1 13.9999 22.7586 10.6999 21.6196 9.25848C21.4391 9.01941 21.3196 8.59988 21.4414 8.35848C21.5 8.29988 21.561 8.06082 22.0414 7.94129ZM20.1875 8.66082C20.2063 9.12957 20.3657 9.60301 20.6586 9.98035C22.9391 12.9194 25.2805 17.2389 24.9196 21.3194C24.8071 22.5475 24.6079 23.935 24.8961 25.2405L9.11801 23.0655L8.64223 20.2061L20.1875 8.66082ZM4.60629 20.0421L6.75317 20.4007L4.19379 22.9577L2.04692 22.5991L4.60629 20.0421ZM7.59926 21.2468L7.95786 23.3936L5.40083 25.953L5.04223 23.8061L7.59926 21.2468Z" fill="#1A1A1A"/>
</svg>
