<svg width="28" height="28" viewBox="0 0 28 28" fill="none" xmlns="http://www.w3.org/2000/svg">
<path d="M10.4 0.199951C8.75005 0.199951 7.40005 1.54995 7.40005 3.19995C7.40005 4.84995 8.75005 6.19995 10.4 6.19995C12.05 6.19995 13.4 4.84995 13.4 3.19995C13.4 1.54995 12.05 0.199951 10.4 0.199951ZM10.4 1.39995C11.4008 1.39995 12.2 2.19917 12.2 3.19995C12.2 4.20073 11.4008 4.99995 10.4 4.99995C9.39927 4.99995 8.60005 4.20073 8.60005 3.19995C8.60005 2.19917 9.39927 1.39995 10.4 1.39995ZM14.6 6.19995C14.5297 6.19995 14.4899 6.20933 14.4383 6.21636C14.4383 6.21401 14.436 6.21401 14.436 6.21636C14.3797 6.21167 14.3235 6.21636 14.2696 6.22808L8.86489 7.43276C8.41958 7.51714 8.06333 7.79136 7.80083 8.13354L7.78911 8.14292C7.72583 8.18979 7.67192 8.25073 7.63208 8.3187L5.97974 11.075L3.10864 10.482C3.07114 10.4726 3.0313 10.4679 2.9938 10.4679C2.99146 10.4679 2.98911 10.4679 2.98911 10.4679C2.86489 10.4375 2.74536 10.4 2.60005 10.4C1.61333 10.4 0.800049 11.2132 0.800049 12.2C0.800049 12.8562 1.20317 13.3695 1.73052 13.6835C1.81021 13.796 1.92739 13.8757 2.06099 13.9132L2.09849 13.9226C2.13599 13.9343 2.19224 13.9531 2.27661 13.9695L2.23208 13.9578L6.69224 15.1437C6.74849 15.1601 6.80708 15.1671 6.86567 15.1648C6.86802 15.1648 6.86802 15.1648 6.87036 15.1648C6.94536 15.1789 7.01099 15.2 7.10005 15.2C7.44927 15.2 7.74458 15.0546 8.00005 14.8531V15.9195L6.38052 19.8054C6.36411 19.8453 6.35239 19.8874 6.34536 19.9296C6.26099 20.1335 6.20005 20.3562 6.20005 20.5999C6.20005 20.6749 6.21177 20.7289 6.2188 20.7898C6.2188 20.7921 6.2188 20.7921 6.2188 20.7945C6.21646 20.8507 6.22114 20.9046 6.23286 20.9585L7.44692 26.1453C7.47739 26.2742 7.55005 26.389 7.65317 26.471C7.97427 27.2234 8.63755 27.7999 9.50005 27.7999C10.6532 27.7999 11.6 26.8531 11.6 25.6999C11.6 25.5312 11.5555 25.3929 11.518 25.2476C11.5227 25.182 11.518 25.1187 11.5016 25.0578L10.4399 21.0289L11.1336 19.7093L11.6329 21.1695C11.6399 21.1929 11.6493 21.2164 11.661 21.2374L11.9352 21.7976C11.9516 21.8351 11.975 21.8703 12.0008 21.9031L15.0477 25.7984C15.1086 25.8781 15.1883 25.939 15.2821 25.9789C15.2821 25.9789 15.2821 25.9789 15.2821 25.9812C15.6571 26.3398 16.1375 26.5999 16.7 26.5999C17.8532 26.5999 18.8 25.6531 18.8 24.4999C18.8 24.1203 18.5985 23.8226 18.425 23.5179C18.4274 23.3867 18.3875 23.2578 18.3102 23.1499L15.2 18.8984V11.1101L16.161 12.275C16.1938 12.3125 16.2313 12.3476 16.2711 12.3781C16.5383 12.6312 16.8993 12.8 17.3 12.8C17.6 12.8 17.8813 12.7085 18.1133 12.5585L18.0336 12.6031L21.8563 10.871L21.8094 10.8898C21.9008 10.857 21.9805 10.8195 22.0461 10.7843C22.154 10.7328 22.2454 10.6484 22.3063 10.5453C22.7047 10.2171 23 9.75776 23 9.19995C23 8.21323 22.1868 7.39995 21.2 7.39995C21.0149 7.39995 20.8625 7.47026 20.6985 7.52183C20.5907 7.51479 20.4829 7.53589 20.3868 7.58511L17.75 8.92808L15.9852 6.85386C15.929 6.78823 15.861 6.73667 15.7836 6.69917C15.4672 6.41089 15.0665 6.19995 14.6 6.19995ZM22.0461 10.7843L22.0063 10.8031L22.0344 10.7914C22.0368 10.789 22.0415 10.7867 22.0461 10.7843ZM14.1993 7.37886C14.2977 7.41636 14.4032 7.42808 14.5063 7.41167C14.5649 7.40229 14.593 7.39995 14.6 7.39995C14.7852 7.39995 14.9446 7.48198 15.0594 7.62026C15.1204 7.69526 15.2 7.75386 15.2891 7.7937L15.1696 7.74683L17.143 10.0695C17.3235 10.2804 17.6235 10.339 17.8719 10.2125L20.8297 8.70776C20.8649 8.69839 20.9 8.68433 20.9352 8.66792C21.0266 8.62104 21.111 8.59995 21.2 8.59995C21.5399 8.59995 21.8 8.86011 21.8 9.19995C21.8 9.42729 21.6782 9.61245 21.4907 9.71792C21.4883 9.72026 21.4836 9.72261 21.479 9.72495C21.4438 9.7437 21.4227 9.75308 21.4063 9.76011C21.3899 9.76479 21.3758 9.77183 21.3594 9.77886L17.5391 11.5085C17.5133 11.5203 17.4875 11.5343 17.4618 11.5507C17.4125 11.5835 17.3586 11.6 17.3 11.6C17.2086 11.6 17.1383 11.5625 17.0774 11.4968C16.986 11.389 16.8571 11.3187 16.7188 11.3L16.9368 11.3304L15.0618 9.05933C14.9024 8.86245 14.6352 8.78979 14.3961 8.87651C14.1594 8.96089 14 9.18589 14 9.44136V19.0929C14 19.2218 14.0399 19.346 14.1149 19.4468L17.0188 23.4195L17.4219 23.0632C17.1735 23.2812 17.15 23.6609 17.3704 23.9093C17.5157 24.0734 17.6 24.2726 17.6 24.4999C17.6 25.0039 17.204 25.3999 16.7 25.3999C16.4118 25.3999 16.1657 25.2664 15.9969 25.0531C15.9782 25.0273 15.9571 25.0039 15.9336 24.9851L12.9852 21.2117L12.7555 20.7453L11.818 18.0054C11.7407 17.7781 11.5368 17.6187 11.2977 17.6C11.0586 17.5812 10.8313 17.7078 10.7188 17.9187L9.26802 20.6749C9.20005 20.8085 9.1813 20.9632 9.2188 21.1062L10.1891 24.7835L10.7563 24.6335C10.5969 24.6757 10.461 24.7835 10.3836 24.9312C10.304 25.0789 10.2899 25.2499 10.3438 25.4093C10.3813 25.5148 10.4 25.6085 10.4 25.6999C10.4 26.2039 10.004 26.5999 9.50005 26.5999C9.06177 26.5999 8.70552 26.2929 8.6188 25.8851C8.56255 25.6062 8.31646 25.4093 8.03286 25.4093H8.5063L7.42817 20.7992L7.41177 20.8976C7.42349 20.832 7.42349 20.7664 7.41177 20.7007C7.40239 20.6515 7.40005 20.6187 7.40005 20.5999C7.40005 20.5109 7.42114 20.4242 7.46567 20.3351C7.4938 20.2812 7.51255 20.2249 7.52192 20.1664L7.51958 20.1968L9.15317 16.271C9.18364 16.1984 9.20005 16.1187 9.20005 16.0414V12.7882C9.20005 12.5117 9.01255 12.2703 8.74536 12.2046C8.47583 12.139 8.19692 12.2632 8.06802 12.507L7.47505 13.6343L7.67427 13.5523C7.54067 13.6062 7.43052 13.707 7.36255 13.8359C7.31099 13.9367 7.21958 14 7.10005 14C7.08599 14 7.06489 13.9976 7.02271 13.9859C6.88911 13.9484 6.74614 13.9554 6.61958 14.0093L6.80005 13.932L2.53911 12.8L2.81567 12.875V13.332C2.81567 13.0742 2.65396 12.8468 2.41021 12.7625C2.41021 12.7625 2.41021 12.7625 2.40786 12.7625C2.1688 12.6828 2.00005 12.4695 2.00005 12.2C2.00005 11.8601 2.26021 11.6 2.60005 11.6C2.6563 11.6 2.71724 11.6093 2.79224 11.6375C3.0688 11.7312 3.37349 11.6117 3.51411 11.3562L3.31724 11.75L6.15317 12.3382C6.40396 12.3898 6.65942 12.2773 6.79067 12.0593L8.59771 9.03823L8.51333 9.10151C8.5813 9.04995 8.63989 8.98667 8.68208 8.90933C8.7688 8.75464 8.91411 8.64448 9.08755 8.61167C9.09458 8.61167 9.10161 8.60933 9.1063 8.60933L14.3563 7.43745L14.1993 7.37886ZM23.6118 11.6C23.2766 11.6 23 11.8648 23 12.2V17C23 17.3304 22.7305 17.6 22.4 17.6H21.2C20.2063 17.6 19.4 18.4062 19.4 19.4C19.4 20.3937 20.2063 21.1999 21.2 21.1999H21.8C23.1266 21.1999 24.2 20.1265 24.2 18.8V14.3C24.2 14.1429 24.3243 14.0046 24.4813 14C25.1 13.9882 25.3883 14.6 26.6 14.6C26.9305 14.6 27.2 14.3304 27.2 14V12.8C27.2 12.4695 26.9305 12.2 26.6 12.2C24.9571 12.2 25.0743 11.6023 23.6118 11.6Z" fill="#1A1A1A"/>
</svg>
