<svg width="22" height="28" viewBox="0 0 22 28" fill="none" xmlns="http://www.w3.org/2000/svg">
<path d="M11 0.800049C9.01958 0.800049 7.40005 2.41958 7.40005 4.40005C7.40005 6.38052 9.01958 8.00005 11 8.00005C12.9805 8.00005 14.6 6.38052 14.6 4.40005C14.6 2.41958 12.9805 0.800049 11 0.800049ZM11 2.00005C12.3336 2.00005 13.4 3.06646 13.4 4.40005C13.4 5.73364 12.3336 6.80005 11 6.80005C9.66646 6.80005 8.60005 5.73364 8.60005 4.40005C8.60005 3.06646 9.66646 2.00005 11 2.00005ZM11 9.20005C8.74771 9.20005 5.81567 9.82817 5.81567 9.82817C5.71724 9.84927 5.62583 9.8938 5.55083 9.95942L5.53911 9.9688C4.9063 10.161 4.40708 10.5829 4.11646 11.1665H4.11411L4.10005 11.1782C4.02739 11.2391 3.9688 11.3188 3.9313 11.4079L1.64849 16.9157C1.61802 16.9907 1.60396 17.0727 1.60396 17.1524C1.50786 17.3891 1.40005 17.6235 1.40005 17.9C1.40005 19.0532 2.34692 20 3.50005 20C3.68989 20 3.86099 19.9696 4.0063 19.9344L5.33755 19.6063C5.28599 19.6649 5.25786 19.7071 5.19458 19.7727C4.87817 20.0915 4.42817 20.4711 3.97583 20.8274C3.07114 21.5399 2.15942 22.1586 2.15942 22.1586C2.07739 22.2125 2.01177 22.2852 1.96724 22.3719C1.28989 22.8594 0.800049 23.6024 0.800049 24.5C0.800049 25.9836 2.01646 27.2 3.50005 27.2H18.5C19.9836 27.2 21.2 25.9836 21.2 24.5C21.2 23.5954 20.7008 22.8477 20.0165 22.3602C19.9719 22.2782 19.911 22.2079 19.8336 22.154C19.8336 22.154 18.9243 21.5118 18.0219 20.7805C17.5696 20.4172 17.1219 20.0282 16.8032 19.7071C16.7727 19.6743 16.761 19.6555 16.7329 19.625L17.9938 19.9344C18.1391 19.9696 18.3102 20 18.5 20C19.6532 20 20.6 19.0532 20.6 17.9C20.6 17.6211 20.4899 17.3868 20.3938 17.15C20.3938 17.0704 20.3797 16.9907 20.3493 16.9157L18.0665 11.4079C18.029 11.3188 17.9727 11.2391 17.9 11.1782L17.8836 11.1665C17.5907 10.5829 17.0938 10.161 16.4586 9.9688L16.4469 9.95942C16.3719 9.8938 16.2805 9.84927 16.1844 9.82817C16.1844 9.82817 13.25 9.20005 11 9.20005ZM11 10.4C12.9829 10.4 15.7766 10.9719 15.875 10.993C15.9102 11.0047 15.9454 11.0141 15.9805 11.0188C16.4282 11.0891 16.7891 11.3985 16.9297 11.8157C16.9625 11.9118 17.0165 11.9985 17.0915 12.0665L17.0141 12.0032L19.1211 17.0891L19.2829 16.8313C19.1657 17.0211 19.161 17.2602 19.2735 17.4524C19.3555 17.593 19.4 17.7407 19.4 17.9C19.4 18.404 19.004 18.8 18.5 18.8C18.4391 18.8 18.3688 18.7907 18.2821 18.7696C18.2797 18.7672 18.2797 18.7672 18.2797 18.7696L15.9618 18.2C15.9547 18.1977 15.95 18.1977 15.943 18.1954L11.143 17.0188C11.1243 17.0118 11.1032 17.0094 11.0844 17.0071C11.0657 17.0024 11.0446 17 11.0258 17C11.0047 17 10.9836 17 10.9649 17C10.9274 17.0024 10.8922 17.0094 10.8571 17.0188L6.05708 18.1954L3.72036 18.7696C3.72036 18.7672 3.72036 18.7672 3.71802 18.7696C3.63364 18.7907 3.56099 18.8 3.50005 18.8C2.99614 18.8 2.60005 18.404 2.60005 17.9C2.60005 17.7407 2.64458 17.593 2.72661 17.45C2.83677 17.2579 2.83442 17.0211 2.71489 16.8313L2.87661 17.0891L4.98364 12.0032L4.88755 12.0852C4.97192 12.0125 5.03286 11.9211 5.06802 11.818C5.21099 11.3985 5.57192 11.0891 6.01958 11.0188C6.05708 11.0141 6.09458 11.0047 6.13208 10.9907H6.13442C6.25161 10.9672 9.02192 10.4 11 10.4ZM11 11C10.6743 11 10.4633 11.1805 10.3297 11.3282C10.1961 11.4758 10.1071 11.6305 10.0227 11.7993C9.85396 12.1391 9.71802 12.5352 9.60083 12.929C9.41802 13.5383 9.35005 13.8969 9.29849 14.1336L6.01021 15.2305C5.69614 15.336 5.52505 15.6758 5.63052 15.9899C5.73599 16.304 6.07583 16.475 6.38989 16.3696L9.98989 15.1696C10.1938 15.1016 10.3461 14.9282 10.3883 14.7172C10.3883 14.7172 10.536 13.9883 10.7493 13.2711C10.8266 13.0133 10.9157 12.8024 11 12.5961C11.0844 12.8024 11.1711 13.0133 11.2508 13.2711C11.4641 13.9883 11.6118 14.7196 11.6118 14.7196C11.654 14.9305 11.8063 15.1016 12.0102 15.1696L15.6102 16.3696C15.9243 16.475 16.2641 16.304 16.3696 15.9899C16.475 15.6758 16.304 15.336 15.9899 15.2305L12.7016 14.1336C12.65 13.8969 12.5821 13.5383 12.3993 12.929C12.2821 12.5352 12.1461 12.1391 11.975 11.7993C11.8907 11.6305 11.8016 11.4758 11.668 11.3282C11.5368 11.1782 11.3235 11 11 11ZM11 18.2188L15.2 19.25V19.2782C15.2 19.6157 15.3336 19.7961 15.4649 19.986C15.5985 20.1758 15.7625 20.3563 15.95 20.5461C16.3227 20.9282 16.7961 21.3336 17.2672 21.7157C18.1579 22.4352 18.9477 22.9907 19.0415 23.0563C19.086 23.1079 19.1399 23.1524 19.2032 23.1852C19.679 23.4407 20 23.9258 20 24.5C20 25.3344 19.3344 26 18.5 26H8.30005C7.79614 26 7.40005 25.604 7.40005 25.1C7.40005 24.6547 7.71411 24.2961 8.12661 24.2165C8.12896 24.2165 8.1313 24.2165 8.13364 24.2165L14.1219 22.9883C14.4313 22.9321 14.6469 22.6415 14.6094 22.3274C14.5719 22.0133 14.2954 21.7813 13.9813 21.8C13.9461 21.8 13.9133 21.8047 13.8782 21.8118L7.89927 23.0375C6.92896 23.225 6.20005 24.0829 6.20005 25.1C6.20005 25.4235 6.28208 25.7258 6.41333 26H3.50005C2.66567 26 2.00005 25.3344 2.00005 24.5C2.00005 23.9305 2.31646 23.45 2.78521 23.1922C2.84146 23.1618 2.89067 23.1243 2.93521 23.0774C3.02896 23.0141 3.82349 22.4774 4.7188 21.7719C5.19224 21.3969 5.66802 20.9985 6.04771 20.6165C6.23521 20.4266 6.40161 20.2415 6.53521 20.0469C6.6688 19.8524 6.80005 19.6579 6.80005 19.3274V19.25L11 18.2188Z" fill="#1A1A1A"/>
</svg>
